<?xml version="1.0" encoding="us-ascii" standalone="no"?><svg xmlns="http://www.w3.org/2000/svg" xmlns:xlink="http://www.w3.org/1999/xlink" contentStyleType="text/css" height="603px" preserveAspectRatio="none" style="width:1775px;height:603px;background:#FFFFFF;" version="1.1" viewBox="0 0 1775 603" width="1775px" zoomAndPan="magnify"><defs/><g><text fill="#000000" font-family="sans-serif" font-size="14" font-weight="bold" lengthAdjust="spacing" textLength="497" x="632.25" y="23.5352">&#1040;&#1088;&#1093;&#1080;&#1090;&#1077;&#1082;&#1090;&#1091;&#1088;&#1072; &#1048;&#1085;&#1090;&#1077;&#1075;&#1088;&#1080;&#1088;&#1086;&#1074;&#1072;&#1085;&#1085;&#1086;&#1081; &#1057;&#1080;&#1089;&#1090;&#1077;&#1084;&#1099; &#1059;&#1087;&#1088;&#1072;&#1074;&#1083;&#1077;&#1085;&#1080;&#1103; &#1054;&#1073;&#1088;&#1072;&#1097;&#1077;&#1085;&#1080;&#1103;&#1084;&#1080;</text><!--cluster ?????????? ???????--><g id="cluster_&#1050;&#1083;&#1080;&#1077;&#1085;&#1090;&#1089;&#1082;&#1080;&#1081; &#1059;&#1088;&#1086;&#1074;&#1077;&#1085;&#1100;"><path d="M8.5,72.4883 L160.5,72.4883 A3.75,3.75 0 0 1 163,74.9883 L170,94.9766 L483.5,94.9766 A2.5,2.5 0 0 1 486,97.4766 L486,478.9883 A2.5,2.5 0 0 1 483.5,481.4883 L8.5,481.4883 A2.5,2.5 0 0 1 6,478.9883 L6,74.9883 A2.5,2.5 0 0 1 8.5,72.4883 " fill="none" style="stroke:#000000;stroke-width:1.5;"/><line style="stroke:#000000;stroke-width:1.5;" x1="6" x2="170" y1="94.9766" y2="94.9766"/><text fill="#000000" font-family="sans-serif" font-size="14" font-weight="bold" lengthAdjust="spacing" textLength="151" x="10" y="88.0234">&#1050;&#1083;&#1080;&#1077;&#1085;&#1090;&#1089;&#1082;&#1080;&#1081; &#1059;&#1088;&#1086;&#1074;&#1077;&#1085;&#1100;</text></g><!--cluster BotUI--><g id="cluster_BotUI"><polygon fill="none" points="232.5,125.4883,242.5,115.4883,433.5,115.4883,433.5,207.4883,423.5,217.4883,232.5,217.4883,232.5,125.4883" style="stroke:#181818;stroke-width:1.0;"/><line style="stroke:#181818;stroke-width:1.0;" x1="423.5" x2="433.5" y1="125.4883" y2="115.4883"/><line style="stroke:#181818;stroke-width:1.0;" x1="232.5" x2="423.5" y1="125.4883" y2="125.4883"/><line style="stroke:#181818;stroke-width:1.0;" x1="423.5" x2="423.5" y1="125.4883" y2="217.4883"/><text fill="#000000" font-family="sans-serif" font-size="14" font-weight="bold" lengthAdjust="spacing" textLength="98" x="280" y="142.0234">Telegram &#1041;&#1086;&#1090;</text></g><!--cluster WebUI--><g id="cluster_WebUI"><polygon fill="none" points="205,251.4883,215,241.4883,462,241.4883,462,447.4883,452,457.4883,205,457.4883,205,251.4883" style="stroke:#181818;stroke-width:1.0;"/><line style="stroke:#181818;stroke-width:1.0;" x1="452" x2="462" y1="251.4883" y2="241.4883"/><line style="stroke:#181818;stroke-width:1.0;" x1="205" x2="452" y1="251.4883" y2="251.4883"/><line style="stroke:#181818;stroke-width:1.0;" x1="452" x2="452" y1="251.4883" y2="457.4883"/><text fill="#000000" font-family="sans-serif" font-size="14" font-weight="bold" lengthAdjust="spacing" textLength="181" x="239" y="268.0234">&#1042;&#1077;&#1073;-&#1055;&#1088;&#1080;&#1083;&#1086;&#1078;&#1077;&#1085;&#1080;&#1077; (React)</text></g><!--cluster ????????? ???????--><g id="cluster_&#1057;&#1077;&#1088;&#1074;&#1077;&#1088;&#1085;&#1099;&#1081; &#1059;&#1088;&#1086;&#1074;&#1077;&#1085;&#1100;"><path d="M521.5,43.4883 L670.5,43.4883 A3.75,3.75 0 0 1 673,45.9883 L680,65.9766 L1766,65.9766 A2.5,2.5 0 0 1 1768.5,68.4766 L1768.5,445.9883 A2.5,2.5 0 0 1 1766,448.4883 L521.5,448.4883 A2.5,2.5 0 0 1 519,445.9883 L519,45.9883 A2.5,2.5 0 0 1 521.5,43.4883 " fill="none" style="stroke:#000000;stroke-width:1.5;"/><line style="stroke:#000000;stroke-width:1.5;" x1="519" x2="680" y1="65.9766" y2="65.9766"/><text fill="#000000" font-family="sans-serif" font-size="14" font-weight="bold" lengthAdjust="spacing" textLength="148" x="523" y="59.0234">&#1057;&#1077;&#1088;&#1074;&#1077;&#1088;&#1085;&#1099;&#1081; &#1059;&#1088;&#1086;&#1074;&#1077;&#1085;&#1100;</text></g><!--cluster CoreSystem--><g id="cluster_CoreSystem"><polygon fill="none" points="732,174.4883,742,164.4883,1394.5,164.4883,1394.5,406.4883,1384.5,416.4883,732,416.4883,732,174.4883" style="stroke:#181818;stroke-width:1.0;"/><line style="stroke:#181818;stroke-width:1.0;" x1="1384.5" x2="1394.5" y1="174.4883" y2="164.4883"/><line style="stroke:#181818;stroke-width:1.0;" x1="732" x2="1384.5" y1="174.4883" y2="174.4883"/><line style="stroke:#181818;stroke-width:1.0;" x1="1384.5" x2="1384.5" y1="174.4883" y2="416.4883"/><text fill="#000000" font-family="sans-serif" font-size="14" font-weight="bold" lengthAdjust="spacing" textLength="106" x="1006.25" y="191.0234">&#1071;&#1076;&#1088;&#1086; &#1057;&#1080;&#1089;&#1090;&#1077;&#1084;&#1099;</text></g><!--entity User--><g id="elem_User"><ellipse cx="78" cy="209.7383" fill="#F1F1F1" rx="8" ry="8" style="stroke:#181818;stroke-width:0.5;"/><path d="M78,217.7383 L78,244.7383 M65,225.7383 L91,225.7383 M78,244.7383 L65,259.7383 M78,244.7383 L91,259.7383 " fill="none" style="stroke:#181818;stroke-width:0.5;"/><text fill="#000000" font-family="sans-serif" font-size="14" lengthAdjust="spacing" textLength="95" x="30.5" y="274.7734">&#1055;&#1086;&#1083;&#1100;&#1079;&#1086;&#1074;&#1072;&#1090;&#1077;&#1083;&#1100;</text></g><!--entity Admin--><g id="elem_Admin"><ellipse cx="78" cy="380.7383" fill="#F1F1F1" rx="8" ry="8" style="stroke:#181818;stroke-width:0.5;"/><path d="M78,388.7383 L78,415.7383 M65,396.7383 L91,396.7383 M78,415.7383 L65,430.7383 M78,415.7383 L91,430.7383 " fill="none" style="stroke:#181818;stroke-width:0.5;"/><text fill="#000000" font-family="sans-serif" font-size="14" lengthAdjust="spacing" textLength="112" x="22" y="445.7734">&#1040;&#1076;&#1084;&#1080;&#1085;&#1080;&#1089;&#1090;&#1088;&#1072;&#1090;&#1086;&#1088;</text></g><!--entity BotAdapter--><g id="elem_BotAdapter"><rect fill="#F1F1F1" height="46.4883" rx="2.5" ry="2.5" style="stroke:#181818;stroke-width:0.5;" width="169" x="248.5" y="155.2383"/><rect fill="#F1F1F1" height="10" style="stroke:#181818;stroke-width:0.5;" width="15" x="397.5" y="160.2383"/><rect fill="#F1F1F1" height="2" style="stroke:#181818;stroke-width:0.5;" width="4" x="395.5" y="162.2383"/><rect fill="#F1F1F1" height="2" style="stroke:#181818;stroke-width:0.5;" width="4" x="395.5" y="166.2383"/><text fill="#000000" font-family="sans-serif" font-size="14" lengthAdjust="spacing" textLength="129" x="263.5" y="188.7734">&#1040;&#1076;&#1072;&#1087;&#1090;&#1077;&#1088; Telegram</text></g><!--entity WebUserClient--><g id="elem_WebUserClient"><rect fill="#F1F1F1" height="62.9766" rx="2.5" ry="2.5" style="stroke:#181818;stroke-width:0.5;" width="168" x="249" y="280.9983"/><rect fill="#F1F1F1" height="10" style="stroke:#181818;stroke-width:0.5;" width="15" x="397" y="285.9983"/><rect fill="#F1F1F1" height="2" style="stroke:#181818;stroke-width:0.5;" width="4" x="395" y="287.9983"/><rect fill="#F1F1F1" height="2" style="stroke:#181818;stroke-width:0.5;" width="4" x="395" y="291.9983"/><text fill="#000000" font-family="sans-serif" font-size="14" lengthAdjust="spacing" textLength="128" x="264" y="314.5334">&#1055;&#1086;&#1083;&#1100;&#1079;&#1086;&#1074;&#1072;&#1090;&#1077;&#1083;&#1100;&#1089;&#1082;&#1080;&#1081;</text><text fill="#000000" font-family="sans-serif" font-size="14" lengthAdjust="spacing" textLength="78" x="264" y="331.0217">&#1048;&#1085;&#1090;&#1077;&#1088;&#1092;&#1077;&#1081;&#1089;</text></g><!--entity WebAdminClient--><g id="elem_WebAdminClient"><rect fill="#F1F1F1" height="62.9766" rx="2.5" ry="2.5" style="stroke:#181818;stroke-width:0.5;" width="178" x="244" y="378.9983"/><rect fill="#F1F1F1" height="10" style="stroke:#181818;stroke-width:0.5;" width="15" x="402" y="383.9983"/><rect fill="#F1F1F1" height="2" style="stroke:#181818;stroke-width:0.5;" width="4" x="400" y="385.9983"/><rect fill="#F1F1F1" height="2" style="stroke:#181818;stroke-width:0.5;" width="4" x="400" y="389.9983"/><text fill="#000000" font-family="sans-serif" font-size="14" lengthAdjust="spacing" textLength="138" x="259" y="412.5334">&#1040;&#1076;&#1084;&#1080;&#1085;&#1080;&#1089;&#1090;&#1088;&#1072;&#1090;&#1080;&#1074;&#1085;&#1099;&#1081;</text><text fill="#000000" font-family="sans-serif" font-size="14" lengthAdjust="spacing" textLength="78" x="259" y="429.0217">&#1048;&#1085;&#1090;&#1077;&#1088;&#1092;&#1077;&#1081;&#1089;</text></g><!--entity SystemAPI--><g id="elem_SystemAPI"><ellipse cx="606" cy="312.4883" fill="#F1F1F1" rx="8" ry="8" style="stroke:#181818;stroke-width:0.5;"/><text fill="#000000" font-family="sans-serif" font-size="14" lengthAdjust="spacing" textLength="87" x="542.5" y="343.0234">API &#1057;&#1080;&#1089;&#1090;&#1077;&#1084;&#1099;</text><text fill="#000000" font-family="sans-serif" font-size="14" lengthAdjust="spacing" textLength="127" x="542.5" y="359.5117">(WebSocket/HTTP)</text></g><!--entity KnowledgeBase--><g id="elem_KnowledgeBase"><path d="M1214,88.4983 C1214,78.4983 1267.5,78.4983 1267.5,78.4983 C1267.5,78.4983 1321,78.4983 1321,88.4983 L1321,130.4748 C1321,140.4748 1267.5,140.4748 1267.5,140.4748 C1267.5,140.4748 1214,140.4748 1214,130.4748 L1214,88.4983 " fill="#F1F1F1" style="stroke:#181818;stroke-width:0.5;"/><path d="M1214,88.4983 C1214,98.4983 1267.5,98.4983 1267.5,98.4983 C1267.5,98.4983 1321,98.4983 1321,88.4983 " fill="none" style="stroke:#181818;stroke-width:0.5;"/><text fill="#000000" font-family="sans-serif" font-size="14" lengthAdjust="spacing" textLength="87" x="1224" y="116.0334">&#1041;&#1072;&#1079;&#1072; &#1047;&#1085;&#1072;&#1085;&#1080;&#1081;</text><text fill="#000000" font-family="sans-serif" font-size="14" lengthAdjust="spacing" textLength="50" x="1224" y="132.5217">(Neo4j)</text></g><!--entity LLMService--><g id="elem_LLMService"><path d="M1542.5277,326.8659 C1547.3634,319.2347 1552.2422,318.5513 1558.0045,325.9091 C1562.7798,319.5434 1570.0677,320.8247 1572.9407,328.0063 C1577.3258,320.262 1582.045,319.311 1588.0809,326.3111 C1591.94,319.7028 1596.1902,320.7912 1600.3767,325.9697 C1604.233,318.9906 1611.2539,317.7306 1615.2625,325.8193 C1619.2052,319.7427 1626.202,320.4636 1629.4021,326.674 C1634.0413,318.8544 1640.2227,317.6213 1645.6137,325.9178 C1650.5373,319.1205 1654.669,319.9229 1659.115,326.4034 C1663.8189,319.5171 1670.088,318.8182 1674.7935,326.4017 C1678.7516,320.4285 1685.2571,320.3086 1688.2208,327.422 C1692.7712,320.2768 1697.3606,319.4773 1702.4406,326.9054 C1707.4161,320.1624 1712.9,320.7006 1717.1545,327.6786 C1721.4531,320.72 1726.7075,321.2338 1730.7566,327.9272 C1734.7808,320.9542 1740.9828,320.2211 1746.0782,326.7077 C1757.9858,330.1149 1763.8748,339.2297 1754.5849,350.2849 C1761.9965,360.6069 1759.4438,369.3544 1747.1917,373.3823 C1743.0082,383.1425 1737.8712,383.9798 1730.8283,376.0233 C1726.2763,381.6081 1720.9091,382.0193 1716.9085,375.3946 C1713.9802,384.397 1706.6526,383.2441 1701.6003,377.6171 C1697.607,384.1068 1691.9339,385.098 1687.2176,378.4059 C1684.0917,384.4974 1678.8211,385.8397 1674.2086,380.031 C1670.5303,388.0497 1663.4165,387.9198 1658.5297,381.3279 C1654.1718,388.4886 1649.8409,387.6678 1645.0427,381.783 C1639.4066,388.6192 1634.6992,388.4006 1630.3721,380.4815 C1625.6279,386.9768 1618.29,386.2829 1615.4325,378.5065 C1611.1348,384.9616 1607.0678,385.6805 1602.0236,379.2855 C1596.4031,385.4161 1591.2184,385.8943 1587.5009,377.3963 C1582.3054,383.3137 1576.679,383.0127 1572.6967,376.0067 C1567.0839,383.2841 1561.9638,382.3795 1558.015,374.4049 C1553.3744,380.0835 1547.3554,379.8044 1543.4448,373.516 C1532.0831,367.5757 1531.47,358.0277 1540.4459,349.5433 C1531.2875,342.6386 1532.6537,332.0234 1542.5277,326.8659 " fill="#F1F1F1" style="stroke:#181818;stroke-width:0.5;"/><text fill="#000000" font-family="sans-serif" font-size="14" lengthAdjust="spacing" textLength="148" x="1549.5" y="346.5334">&#1042;&#1085;&#1077;&#1096;&#1085;&#1080;&#1081; LLM &#1057;&#1077;&#1088;&#1074;&#1080;&#1089;</text><text fill="#000000" font-family="sans-serif" font-size="14" lengthAdjust="spacing" textLength="188" x="1549.5" y="363.0217">(OpenAI-&#1089;&#1086;&#1074;&#1084;&#1077;&#1089;&#1090;&#1080;&#1084;&#1099;&#1081; API)</text></g><!--entity QueryService--><g id="elem_QueryService"><rect fill="#F1F1F1" height="62.9766" rx="2.5" ry="2.5" style="stroke:#181818;stroke-width:0.5;" width="194" x="756" y="309.9983"/><rect fill="#F1F1F1" height="10" style="stroke:#181818;stroke-width:0.5;" width="15" x="930" y="314.9983"/><rect fill="#F1F1F1" height="2" style="stroke:#181818;stroke-width:0.5;" width="4" x="928" y="316.9983"/><rect fill="#F1F1F1" height="2" style="stroke:#181818;stroke-width:0.5;" width="4" x="928" y="320.9983"/><text fill="#000000" font-family="sans-serif" font-size="14" lengthAdjust="spacing" textLength="154" x="771" y="343.5334">&#1054;&#1073;&#1088;&#1072;&#1073;&#1086;&#1090;&#1095;&#1080;&#1082; &#1047;&#1072;&#1087;&#1088;&#1086;&#1089;&#1086;&#1074;</text><text fill="#000000" font-family="sans-serif" font-size="14" lengthAdjust="spacing" textLength="103" x="771" y="360.0217">(Query Service)</text></g><!--entity CommandService--><g id="elem_CommandService"><rect fill="#F1F1F1" height="62.9766" rx="2.5" ry="2.5" style="stroke:#181818;stroke-width:0.5;" width="182" x="762" y="211.9983"/><rect fill="#F1F1F1" height="10" style="stroke:#181818;stroke-width:0.5;" width="15" x="924" y="216.9983"/><rect fill="#F1F1F1" height="2" style="stroke:#181818;stroke-width:0.5;" width="4" x="922" y="218.9983"/><rect fill="#F1F1F1" height="2" style="stroke:#181818;stroke-width:0.5;" width="4" x="922" y="222.9983"/><text fill="#000000" font-family="sans-serif" font-size="14" lengthAdjust="spacing" textLength="142" x="777" y="245.5334">&#1054;&#1073;&#1088;&#1072;&#1073;&#1086;&#1090;&#1095;&#1080;&#1082; &#1050;&#1086;&#1084;&#1072;&#1085;&#1076;</text><text fill="#000000" font-family="sans-serif" font-size="14" lengthAdjust="spacing" textLength="126" x="777" y="262.0217">(&#1040;&#1076;&#1084;&#1080;&#1085;. &#1060;&#1091;&#1085;&#1082;&#1094;&#1080;&#1080;)</text></g><!--entity LLMNav--><g id="elem_LLMNav"><rect fill="#F1F1F1" height="46.4883" rx="2.5" ry="2.5" style="stroke:#181818;stroke-width:0.5;" width="206" x="1164.5" y="326.2383"/><rect fill="#F1F1F1" height="10" style="stroke:#181818;stroke-width:0.5;" width="15" x="1350.5" y="331.2383"/><rect fill="#F1F1F1" height="2" style="stroke:#181818;stroke-width:0.5;" width="4" x="1348.5" y="333.2383"/><rect fill="#F1F1F1" height="2" style="stroke:#181818;stroke-width:0.5;" width="4" x="1348.5" y="337.2383"/><text fill="#000000" font-family="sans-serif" font-size="14" lengthAdjust="spacing" textLength="166" x="1179.5" y="359.7734">&#1052;&#1086;&#1076;&#1091;&#1083;&#1100; LLM-&#1053;&#1072;&#1074;&#1080;&#1075;&#1072;&#1094;&#1080;&#1080;</text></g><!--entity SessionCtx--><g id="elem_SessionCtx"><rect fill="#F1F1F1" height="62.9766" rx="2.5" ry="2.5" style="stroke:#181818;stroke-width:0.5;" width="179" x="1178" y="227.9983"/><rect fill="#F1F1F1" height="10" style="stroke:#181818;stroke-width:0.5;" width="15" x="1337" y="232.9983"/><rect fill="#F1F1F1" height="2" style="stroke:#181818;stroke-width:0.5;" width="4" x="1335" y="234.9983"/><rect fill="#F1F1F1" height="2" style="stroke:#181818;stroke-width:0.5;" width="4" x="1335" y="238.9983"/><text fill="#000000" font-family="sans-serif" font-size="14" lengthAdjust="spacing" textLength="139" x="1193" y="261.5334">&#1052;&#1086;&#1076;&#1091;&#1083;&#1100; &#1059;&#1087;&#1088;&#1072;&#1074;&#1083;&#1077;&#1085;&#1080;&#1103;</text><text fill="#000000" font-family="sans-serif" font-size="14" lengthAdjust="spacing" textLength="137" x="1193" y="278.0217">&#1050;&#1086;&#1085;&#1090;&#1077;&#1082;&#1089;&#1090;&#1086;&#1084; &#1057;&#1077;&#1089;&#1089;&#1080;&#1080;</text></g><g id="elem_GMN32"><path d="M1153,464.2483 L1153,596.7327 L1382,596.7327 L1382,474.2483 L1372,464.2483 L1153,464.2483 " fill="#FEFFDD" style="stroke:#181818;stroke-width:0.5;"/><path d="M1372,464.2483 L1372,474.2483 L1382,474.2483 L1372,464.2483 " fill="#FEFFDD" style="stroke:#181818;stroke-width:1.0;"/><text fill="#000000" font-family="sans-serif" font-size="13" font-weight="bold" lengthAdjust="spacing" textLength="153" x="1159" y="481.8166">&#1050;&#1083;&#1102;&#1095;&#1077;&#1074;&#1099;&#1077; &#1055;&#1088;&#1080;&#1085;&#1094;&#1080;&#1087;&#1099;:</text><text fill="#000000" font-family="sans-serif" font-size="13" lengthAdjust="spacing" textLength="151" x="1159" y="497.1272">- &#1052;&#1086;&#1076;&#1091;&#1083;&#1100;&#1085;&#1072;&#1103; &#1089;&#1090;&#1088;&#1091;&#1082;&#1090;&#1091;&#1088;&#1072;</text><text fill="#000000" font-family="sans-serif" font-size="13" lengthAdjust="spacing" textLength="207" x="1159" y="512.4377">- &#1056;&#1072;&#1079;&#1076;&#1077;&#1083;&#1077;&#1085;&#1080;&#1077; &#1083;&#1086;&#1075;&#1080;&#1082;&#1080; &#1086;&#1073;&#1088;&#1072;&#1073;&#1086;&#1090;&#1082;&#1080;</text><text fill="#000000" font-family="sans-serif" font-size="13" lengthAdjust="spacing" textLength="200" x="1167" y="527.7483">&#1079;&#1072;&#1087;&#1088;&#1086;&#1089;&#1086;&#1074; &#1080; &#1082;&#1086;&#1084;&#1072;&#1085;&#1076; (CQRS-like)</text><text fill="#000000" font-family="sans-serif" font-size="13" lengthAdjust="spacing" textLength="195" x="1159" y="543.0588">- &#1059;&#1087;&#1088;&#1072;&#1074;&#1083;&#1103;&#1077;&#1084;&#1072;&#1103; LLM &#1085;&#1072;&#1074;&#1080;&#1075;&#1072;&#1094;&#1080;&#1103;</text><text fill="#000000" font-family="sans-serif" font-size="13" lengthAdjust="spacing" textLength="107" x="1167" y="558.3694">&#1087;&#1086; &#1075;&#1088;&#1072;&#1092;&#1091; &#1079;&#1085;&#1072;&#1085;&#1080;&#1081;</text><text fill="#000000" font-family="sans-serif" font-size="13" lengthAdjust="spacing" textLength="189" x="1159" y="573.6799">- &#1054;&#1073;&#1077;&#1089;&#1087;&#1077;&#1095;&#1077;&#1085;&#1080;&#1077; &#1087;&#1088;&#1086;&#1079;&#1088;&#1072;&#1095;&#1085;&#1086;&#1089;&#1090;&#1080;</text><text fill="#000000" font-family="sans-serif" font-size="13" lengthAdjust="spacing" textLength="156" x="1167" y="588.9905">&#1080; &#1086;&#1073;&#1098;&#1103;&#1089;&#1085;&#1080;&#1084;&#1086;&#1089;&#1090;&#1080; &#1086;&#1090;&#1074;&#1077;&#1090;&#1086;&#1074;</text></g><!--link User to BotAdapter--><g id="link_User_BotAdapter"><path d="M125.99,228.1583 C160.22,219.9083 207.5,208.5083 248.14,198.7083 " fill="none" id="User-BotAdapter" style="stroke:#181818;stroke-width:1.0;"/></g><!--link User to WebUserClient--><g id="link_User_WebUserClient"><path d="M125.99,253.0483 C160.36,262.9583 207.9,276.6783 248.65,288.4383 " fill="none" id="User-WebUserClient" style="stroke:#181818;stroke-width:1.0;"/></g><!--link Admin to WebAdminClient--><g id="link_Admin_WebAdminClient"><path d="M134.21,410.4883 C166.2,410.4883 207.21,410.4883 243.59,410.4883 " fill="none" id="Admin-WebAdminClient" style="stroke:#181818;stroke-width:1.0;"/></g><!--link BotAdapter to SystemAPI--><g id="link_BotAdapter_SystemAPI"><path d="M381.83,202.1383 C448.99,235.3483 561.1316,290.7987 592.0116,306.0687 " fill="none" id="BotAdapter-to-SystemAPI" style="stroke:#181818;stroke-width:1.0;"/><polygon fill="#181818" points="597.39,308.7283,591.0955,301.1534,592.908,306.512,587.5494,308.3245,597.39,308.7283" style="stroke:#181818;stroke-width:1.0;"/></g><!--link WebUserClient to SystemAPI--><g id="link_WebUserClient_SystemAPI"><path d="M417.15,312.4883 C484.05,312.4883 565.08,312.4883 591.24,312.4883 " fill="none" id="WebUserClient-to-SystemAPI" style="stroke:#181818;stroke-width:1.0;"/><polygon fill="#181818" points="597.24,312.4883,588.24,308.4883,592.24,312.4883,588.24,316.4883,597.24,312.4883" style="stroke:#181818;stroke-width:1.0;"/></g><!--link WebAdminClient to SystemAPI--><g id="link_WebAdminClient_SystemAPI"><path d="M422.24,385.5083 C445.74,378.2983 470.99,370.0483 494,361.4883 C533.48,346.7883 573.6227,327.7692 591.6627,319.0092 " fill="none" id="WebAdminClient-to-SystemAPI" style="stroke:#181818;stroke-width:1.0;"/><polygon fill="#181818" points="597.06,316.3883,587.2168,316.7214,592.5622,318.5723,590.7113,323.9178,597.06,316.3883" style="stroke:#181818;stroke-width:1.0;"/></g><!--link SystemAPI to QueryService--><g id="link_SystemAPI_QueryService"><path d="M614.87,313.4183 C636.7,315.9983 700.05,323.4983 755.78,330.0983 " fill="none" id="SystemAPI-QueryService" style="stroke:#181818;stroke-width:1.0;"/></g><!--link SystemAPI to CommandService--><g id="link_SystemAPI_CommandService"><path d="M614.87,310.2683 C637.48,303.8983 704.62,284.9883 761.71,268.9183 " fill="none" id="SystemAPI-CommandService" style="stroke:#181818;stroke-width:1.0;"/></g><!--link QueryService to LLMNav--><g id="link_QueryService_LLMNav"><path d="M950.45,343.3583 C1014.62,344.5983 1092.8011,346.1226 1158.1511,347.3826 " fill="none" id="QueryService-to-LLMNav" style="stroke:#181818;stroke-width:1.0;"/><polygon fill="#181818" points="1164.15,347.4983,1155.2288,343.3255,1159.1509,347.4019,1155.0746,351.324,1164.15,347.4983" style="stroke:#181818;stroke-width:1.0;"/></g><!--link QueryService to SessionCtx--><g id="link_QueryService_SessionCtx"><path d="M950.35,336.7883 C1013.94,333.0783 1091.19,327.2283 1123,319.4883 C1130.74,317.5983 1156.3122,307.065 1187.5922,293.705 " fill="none" id="QueryService-to-SessionCtx" style="stroke:#181818;stroke-width:1.0;"/><polygon fill="#181818" points="1193.11,291.3483,1183.2622,291.2048,1188.5118,293.3122,1186.4045,298.5619,1193.11,291.3483" style="stroke:#181818;stroke-width:1.0;"/></g><!--link QueryService to KnowledgeBase--><g id="link_QueryService_KnowledgeBase"><path d="M933.87,309.4983 C988.57,286.3683 1061.97,252.8883 1123,216.4883 C1143.62,204.1883 1186.8752,171.4307 1221.6952,144.4807 " fill="none" id="QueryService-to-KnowledgeBase" style="stroke:#181818;stroke-width:1.0;"/><polygon fill="#181818" points="1226.44,140.8083,1216.8745,143.1537,1222.486,143.8686,1221.771,149.4801,1226.44,140.8083" style="stroke:#181818;stroke-width:1.0;"/><text fill="#000000" font-family="sans-serif" font-size="13" lengthAdjust="spacing" textLength="107" x="998" y="213.0566">&#171;&#1095;&#1080;&#1090;&#1072;&#1077;&#1090; &#1076;&#1072;&#1085;&#1085;&#1099;&#1077;&#187;</text></g><!--link CommandService to KnowledgeBase--><g id="link_CommandService_KnowledgeBase"><path d="M927.42,211.5583 C944.54,204.5683 962.79,197.4783 980,191.4883 C1060.37,163.4983 1149.9397,139.115 1207.8597,124.195 " fill="none" id="CommandService-to-KnowledgeBase" style="stroke:#181818;stroke-width:1.0;"/><polygon fill="#181818" points="1213.67,122.6983,1203.9567,121.0698,1208.8281,123.9455,1205.9523,128.8169,1213.67,122.6983" style="stroke:#181818;stroke-width:1.0;"/><text fill="#000000" font-family="sans-serif" font-size="13" lengthAdjust="spacing" textLength="141" x="981" y="144.5566">&#171;&#1091;&#1087;&#1088;&#1072;&#1074;&#1083;&#1103;&#1077;&#1090; &#1076;&#1072;&#1085;&#1085;&#1099;&#1084;&#1080;&#187;</text></g><!--link LLMNav to LLMService--><g id="link_LLMNav_LLMService"><path d="M1370.7,349.4883 C1421.41,349.4883 1476.69,349.4883 1528.21,349.4883 " fill="none" id="LLMNav-to-LLMService" style="stroke:#181818;stroke-width:1.0;"/><polygon fill="#181818" points="1534.21,349.4883,1525.21,345.4883,1529.21,349.4883,1525.21,353.4883,1534.21,349.4883" style="stroke:#181818;stroke-width:1.0;"/><text fill="#000000" font-family="sans-serif" font-size="13" lengthAdjust="spacing" textLength="84" x="1419.5" y="346.0566">&#171;API &#1074;&#1099;&#1079;&#1086;&#1074;&#1099;&#187;</text></g><!--link CoreSystem to GMN32--><g id="link_CoreSystem_GMN32"><path d="M881.2348,416.5384 C881.5101,416.6199 881.7872,416.7018 882.0661,416.7843 C883.1817,417.1142 884.3259,417.4526 885.498,417.7992 C904.2509,423.3452 930.1244,430.997 959.6388,439.7258 C1018.6675,457.1833 1092.26,478.9483 1152.58,496.7883 " fill="none" id="CoreSystem-GMN32" style="stroke:#181818;stroke-width:1.0;stroke-dasharray:7.0,7.0;"/></g><!--SRC=[ZLNBRjDG4DtxAqPTjOl0XXMg8fLkg7YJ8ZPitFYsc2PsbPYNKAKsvLr4WGq8yLJPaxO9DQ5kVs7k7t5cR2TEcY9KfRBdpfmvzyp3aH_L34tm6xjcdt1iMzpbdctP3Rl6RU8FdAXf3wynVeUyosrEy7V8luc_mxYk3WTsatYRZoGCFdzWId2uHVo5TyHeN-GcFk1umd5gPZ6YAAI6ltGx8izlc6haXu7ZE2jkTTbT4bOV0HHB71YjSm_FIBgTyH3pgmbwv12vrIXi47-5_OzznVifJoM6TtARTADf6WF7DzmH5ie7_9LVYm_jchZEU7KVD8Y2q0E9ULCpImstJlmM7gq9SJaNHZVcD3DHDQolX8498b4Hk6s8WCJ0oYFpa1dFNOcKnke0dj-1v4w9luh2kEuX_qg5uYvDNZSWFANnDyt2s9Gdt3cNwrQGrn05VeopttQzZmTDPci-SCPUvBX0CJ8aTlFVg2fV7tRLMIqMzBj4IEtmNv76bjCF8DEYMqN4pDMvaJQx5KmYIoMiBflezFdv-QkfFfM7pSZKuLwGzYTt17m4GDrdmuP9GyPechKixqZ1xJFSkqVyNYiBE4WBlg1nxQvfFAIAQTppgoPbeQRCyd-m7m5se3FL0UH0-5F4F-m6p3tx5E_nL4QxNdS3xwGCdm3MGPGq_SMBbqhyMQSnvZtKJs4K1KUNtNl_Z1utowYwi4so9I62WZjfKTUXIWvVCSqc9dasUf2tkkT6xeBRb9gy1UQ-h9Rt06rhewET9Y-RyCoTz8uNWl1-pNXBvXmY45ojXNSz7PG4YPwd8N87whSJgWkCAoicc9ahfVM1Ybsb64lD4O3McCfld-i7SZ84L2eLvpCt3O-8zdLcBlQuCuZ4QRdGY4FnnyyA82E7JlzHyWtrrD39I3SuHK-5p0fzp5weqB6p8VdfB4rFIwj2o3O4RP5kk4I7jrikEyumXvCGDWRTX0_020xwNP1IiZdl7532TGdimbENdDqKxo2CJFRj21SBuuo6cLueovV3lWRnhiPrATklYKx1aTqyEtrweGpV4XNRNbeItwnqvS7K_nAcdj-qTpkoOVixMbVsdimonuJ7meYBIOTC6hwuEqXSUuF1fydPQzShfPg_RARIJDl3UeaZU6dF9yCZRRVI54Uov_PqKJ-s6vAoFruf9BQFJ0GSkwfBHbzfyRu6FfFlUZeqAMXsevTs2u4IS92VarvG5haiWLt711v9IVu2]--></g></svg>