<?xml version="1.0" encoding="us-ascii" standalone="no"?><svg xmlns="http://www.w3.org/2000/svg" xmlns:xlink="http://www.w3.org/1999/xlink" contentStyleType="text/css" height="715px" preserveAspectRatio="none" style="width:779px;height:715px;background:#FFFFFF;" version="1.1" viewBox="0 0 779 715" width="779px" zoomAndPan="magnify"><defs/><g><text fill="#000000" font-family="sans-serif" font-size="14" font-weight="bold" lengthAdjust="spacing" textLength="295" x="243.75" y="28.5352">&#1055;&#1086;&#1089;&#1083;&#1077;&#1076;&#1086;&#1074;&#1072;&#1090;&#1077;&#1083;&#1100;&#1085;&#1086;&#1089;&#1090;&#1100; &#1086;&#1073;&#1088;&#1072;&#1073;&#1086;&#1090;&#1082;&#1080; &#1079;&#1072;&#1087;&#1088;&#1086;&#1089;&#1072;</text><rect fill="#FFFFFF" height="399.9922" style="stroke:#181818;stroke-width:1.0;" width="10" x="246.5" y="150.2871"/><rect fill="#FFFFFF" height="341.3711" style="stroke:#181818;stroke-width:1.0;" width="10" x="436.5" y="179.5977"/><rect fill="none" height="239.4395" style="stroke:#000000;stroke-width:1.5;" width="408" x="365.5" y="253.2188"/><rect fill="none" height="149.5078" style="stroke:#000000;stroke-width:1.5;" width="388" x="375.5" y="336.1504"/><line style="stroke:#181818;stroke-width:0.5;stroke-dasharray:5.0,5.0;" x1="55" x2="55" y1="118.9766" y2="634.2109"/><line style="stroke:#181818;stroke-width:0.5;stroke-dasharray:5.0,5.0;" x1="251" x2="251" y1="118.9766" y2="634.2109"/><line style="stroke:#181818;stroke-width:0.5;stroke-dasharray:5.0,5.0;" x1="441.5" x2="441.5" y1="118.9766" y2="634.2109"/><line style="stroke:#181818;stroke-width:0.5;stroke-dasharray:5.0,5.0;" x1="657.5" x2="657.5" y1="118.9766" y2="634.2109"/><line style="stroke:#181818;stroke-width:0.5;stroke-dasharray:5.0,5.0;" x1="720.5" x2="720.5" y1="118.9766" y2="634.2109"/><text fill="#000000" font-family="sans-serif" font-size="14" lengthAdjust="spacing" textLength="95" x="5" y="116.0234">&#1055;&#1086;&#1083;&#1100;&#1079;&#1086;&#1074;&#1072;&#1090;&#1077;&#1083;&#1100;</text><ellipse cx="55.5" cy="50.9883" fill="#E2E2F0" rx="8" ry="8" style="stroke:#181818;stroke-width:0.5;"/><path d="M55.5,58.9883 L55.5,85.9883 M42.5,66.9883 L68.5,66.9883 M55.5,85.9883 L42.5,100.9883 M55.5,85.9883 L68.5,100.9883 " fill="none" style="stroke:#181818;stroke-width:0.5;"/><text fill="#000000" font-family="sans-serif" font-size="14" lengthAdjust="spacing" textLength="95" x="5" y="646.7461">&#1055;&#1086;&#1083;&#1100;&#1079;&#1086;&#1074;&#1072;&#1090;&#1077;&#1083;&#1100;</text><ellipse cx="55.5" cy="658.1992" fill="#E2E2F0" rx="8" ry="8" style="stroke:#181818;stroke-width:0.5;"/><path d="M55.5,666.1992 L55.5,693.1992 M42.5,674.1992 L68.5,674.1992 M55.5,693.1992 L42.5,708.1992 M55.5,693.1992 L68.5,708.1992 " fill="none" style="stroke:#181818;stroke-width:0.5;"/><rect fill="#E2E2F0" height="30.4883" rx="2.5" ry="2.5" style="stroke:#181818;stroke-width:0.5;" width="111" x="196" y="87.4883"/><text fill="#000000" font-family="sans-serif" font-size="14" lengthAdjust="spacing" textLength="97" x="203" y="108.0234">Telegram-&#1073;&#1086;&#1090;</text><rect fill="#E2E2F0" height="30.4883" rx="2.5" ry="2.5" style="stroke:#181818;stroke-width:0.5;" width="111" x="196" y="633.2109"/><text fill="#000000" font-family="sans-serif" font-size="14" lengthAdjust="spacing" textLength="97" x="203" y="653.7461">Telegram-&#1073;&#1086;&#1090;</text><rect fill="#E2E2F0" height="30.4883" rx="2.5" ry="2.5" style="stroke:#181818;stroke-width:0.5;" width="112" x="385.5" y="87.4883"/><text fill="#000000" font-family="sans-serif" font-size="14" lengthAdjust="spacing" textLength="98" x="392.5" y="108.0234">&#1071;&#1076;&#1088;&#1086; &#1089;&#1080;&#1089;&#1090;&#1077;&#1084;&#1099;</text><rect fill="#E2E2F0" height="30.4883" rx="2.5" ry="2.5" style="stroke:#181818;stroke-width:0.5;" width="112" x="385.5" y="633.2109"/><text fill="#000000" font-family="sans-serif" font-size="14" lengthAdjust="spacing" textLength="98" x="392.5" y="653.7461">&#1071;&#1076;&#1088;&#1086; &#1089;&#1080;&#1089;&#1090;&#1077;&#1084;&#1099;</text><rect fill="#E2E2F0" height="30.4883" rx="2.5" ry="2.5" style="stroke:#181818;stroke-width:0.5;" width="40" x="637.5" y="87.4883"/><text fill="#000000" font-family="sans-serif" font-size="14" lengthAdjust="spacing" textLength="26" x="644.5" y="108.0234">LLM</text><rect fill="#E2E2F0" height="30.4883" rx="2.5" ry="2.5" style="stroke:#181818;stroke-width:0.5;" width="40" x="637.5" y="633.2109"/><text fill="#000000" font-family="sans-serif" font-size="14" lengthAdjust="spacing" textLength="26" x="644.5" y="653.7461">LLM</text><text fill="#000000" font-family="sans-serif" font-size="14" lengthAdjust="spacing" textLength="60" x="687.5" y="116.0234">Neo4j &#1041;&#1047;</text><path d="M702.5,66.4883 C702.5,56.4883 720.5,56.4883 720.5,56.4883 C720.5,56.4883 738.5,56.4883 738.5,66.4883 L738.5,92.4883 C738.5,102.4883 720.5,102.4883 720.5,102.4883 C720.5,102.4883 702.5,102.4883 702.5,92.4883 L702.5,66.4883 " fill="#E2E2F0" style="stroke:#181818;stroke-width:1.5;"/><path d="M702.5,66.4883 C702.5,76.4883 720.5,76.4883 720.5,76.4883 C720.5,76.4883 738.5,76.4883 738.5,66.4883 " fill="none" style="stroke:#181818;stroke-width:1.5;"/><text fill="#000000" font-family="sans-serif" font-size="14" lengthAdjust="spacing" textLength="60" x="687.5" y="646.7461">Neo4j &#1041;&#1047;</text><path d="M702.5,659.6992 C702.5,649.6992 720.5,649.6992 720.5,649.6992 C720.5,649.6992 738.5,649.6992 738.5,659.6992 L738.5,685.6992 C738.5,695.6992 720.5,695.6992 720.5,695.6992 C720.5,695.6992 702.5,695.6992 702.5,685.6992 L702.5,659.6992 " fill="#E2E2F0" style="stroke:#181818;stroke-width:1.5;"/><path d="M702.5,659.6992 C702.5,669.6992 720.5,669.6992 720.5,669.6992 C720.5,669.6992 738.5,669.6992 738.5,659.6992 " fill="none" style="stroke:#181818;stroke-width:1.5;"/><rect fill="#FFFFFF" height="399.9922" style="stroke:#181818;stroke-width:1.0;" width="10" x="246.5" y="150.2871"/><rect fill="#FFFFFF" height="341.3711" style="stroke:#181818;stroke-width:1.0;" width="10" x="436.5" y="179.5977"/><polygon fill="#181818" points="234.5,146.2871,244.5,150.2871,234.5,154.2871,238.5,150.2871" style="stroke:#181818;stroke-width:1.0;"/><line style="stroke:#181818;stroke-width:1.0;" x1="55.5" x2="240.5" y1="150.2871" y2="150.2871"/><text fill="#000000" font-family="sans-serif" font-size="13" lengthAdjust="spacing" textLength="115" x="62.5" y="145.5449">&#1054;&#1090;&#1087;&#1088;&#1072;&#1074;&#1082;&#1072; &#1079;&#1072;&#1087;&#1088;&#1086;&#1089;&#1072;</text><polygon fill="#181818" points="424.5,175.5977,434.5,179.5977,424.5,183.5977,428.5,179.5977" style="stroke:#181818;stroke-width:1.0;"/><line style="stroke:#181818;stroke-width:1.0;" x1="256.5" x2="430.5" y1="179.5977" y2="179.5977"/><text fill="#000000" font-family="sans-serif" font-size="13" lengthAdjust="spacing" textLength="151" x="263.5" y="174.8555">&#1048;&#1085;&#1080;&#1094;&#1080;&#1072;&#1083;&#1080;&#1079;&#1072;&#1094;&#1080;&#1103; &#1089;&#1077;&#1089;&#1089;&#1080;&#1080;</text><polygon fill="#181818" points="708.5,204.9082,718.5,208.9082,708.5,212.9082,712.5,208.9082" style="stroke:#181818;stroke-width:1.0;"/><line style="stroke:#181818;stroke-width:1.0;" x1="446.5" x2="714.5" y1="208.9082" y2="208.9082"/><text fill="#000000" font-family="sans-serif" font-size="13" lengthAdjust="spacing" textLength="153" x="453.5" y="204.166">&#1055;&#1086;&#1080;&#1089;&#1082; &#1085;&#1072;&#1095;&#1072;&#1083;&#1100;&#1085;&#1099;&#1093; &#1091;&#1079;&#1083;&#1086;&#1074;</text><polygon fill="#181818" points="457.5,234.2188,447.5,238.2188,457.5,242.2188,453.5,238.2188" style="stroke:#181818;stroke-width:1.0;"/><line style="stroke:#181818;stroke-width:1.0;stroke-dasharray:2.0,2.0;" x1="451.5" x2="719.5" y1="238.2188" y2="238.2188"/><text fill="#000000" font-family="sans-serif" font-size="13" lengthAdjust="spacing" textLength="143" x="463.5" y="233.4766">&#1059;&#1079;&#1083;&#1099; &#1074;&#1077;&#1088;&#1093;&#1085;&#1077;&#1075;&#1086; &#1091;&#1088;&#1086;&#1074;&#1085;&#1103;</text><path d="M365.5,253.2188 L439.5,253.2188 L439.5,260.5293 L429.5,270.5293 L365.5,270.5293 L365.5,253.2188 " fill="#EEEEEE" style="stroke:#000000;stroke-width:1.5;"/><rect fill="none" height="239.4395" style="stroke:#000000;stroke-width:1.5;" width="408" x="365.5" y="253.2188"/><text fill="#000000" font-family="sans-serif" font-size="13" font-weight="bold" lengthAdjust="spacing" textLength="29" x="380.5" y="266.7871">loop</text><text fill="#000000" font-family="sans-serif" font-size="11" font-weight="bold" lengthAdjust="spacing" textLength="123" x="454.5" y="265.8535">[&#1048;&#1090;&#1077;&#1088;&#1072;&#1090;&#1080;&#1074;&#1085;&#1099;&#1081; &#1087;&#1086;&#1080;&#1089;&#1082;]</text><polygon fill="#181818" points="645.5,287.8398,655.5,291.8398,645.5,295.8398,649.5,291.8398" style="stroke:#181818;stroke-width:1.0;"/><line style="stroke:#181818;stroke-width:1.0;" x1="446.5" x2="651.5" y1="291.8398" y2="291.8398"/><text fill="#000000" font-family="sans-serif" font-size="13" lengthAdjust="spacing" textLength="187" x="453.5" y="287.0977">&#1040;&#1085;&#1072;&#1083;&#1080;&#1079; + &#1082;&#1086;&#1085;&#1090;&#1077;&#1082;&#1089;&#1090; + &#1091;&#1079;&#1083;&#1099; &#1041;&#1047;</text><polygon fill="#181818" points="457.5,317.1504,447.5,321.1504,457.5,325.1504,453.5,321.1504" style="stroke:#181818;stroke-width:1.0;"/><line style="stroke:#181818;stroke-width:1.0;stroke-dasharray:2.0,2.0;" x1="451.5" x2="656.5" y1="321.1504" y2="321.1504"/><text fill="#000000" font-family="sans-serif" font-size="13" lengthAdjust="spacing" textLength="166" x="463.5" y="316.4082">&#1056;&#1077;&#1082;&#1086;&#1084;&#1077;&#1085;&#1076;&#1072;&#1094;&#1080;&#1080; &#1085;&#1072;&#1074;&#1080;&#1075;&#1072;&#1094;&#1080;&#1080;</text><path d="M375.5,336.1504 L437.5,336.1504 L437.5,343.4609 L427.5,353.4609 L375.5,353.4609 L375.5,336.1504 " fill="#EEEEEE" style="stroke:#000000;stroke-width:1.5;"/><rect fill="none" height="149.5078" style="stroke:#000000;stroke-width:1.5;" width="388" x="375.5" y="336.1504"/><text fill="#000000" font-family="sans-serif" font-size="13" font-weight="bold" lengthAdjust="spacing" textLength="17" x="390.5" y="349.7188">alt</text><text fill="#000000" font-family="sans-serif" font-size="11" font-weight="bold" lengthAdjust="spacing" textLength="156" x="452.5" y="348.7852">[&#1053;&#1072;&#1081;&#1076;&#1077;&#1085; &#1092;&#1080;&#1085;&#1072;&#1083;&#1100;&#1085;&#1099;&#1081; &#1086;&#1090;&#1074;&#1077;&#1090;]</text><polygon fill="#181818" points="708.5,370.7715,718.5,374.7715,708.5,378.7715,712.5,374.7715" style="stroke:#181818;stroke-width:1.0;"/><line style="stroke:#181818;stroke-width:1.0;" x1="446.5" x2="714.5" y1="374.7715" y2="374.7715"/><text fill="#000000" font-family="sans-serif" font-size="13" lengthAdjust="spacing" textLength="173" x="453.5" y="370.0293">&#1055;&#1086;&#1083;&#1091;&#1095;&#1077;&#1085;&#1080;&#1077; &#1087;&#1086;&#1083;&#1085;&#1086;&#1075;&#1086; &#1086;&#1090;&#1074;&#1077;&#1090;&#1072;</text><polygon fill="#181818" points="457.5,400.082,447.5,404.082,457.5,408.082,453.5,404.082" style="stroke:#181818;stroke-width:1.0;"/><line style="stroke:#181818;stroke-width:1.0;stroke-dasharray:2.0,2.0;" x1="451.5" x2="719.5" y1="404.082" y2="404.082"/><text fill="#000000" font-family="sans-serif" font-size="13" lengthAdjust="spacing" textLength="114" x="463.5" y="399.3398">&#1057;&#1086;&#1076;&#1077;&#1088;&#1078;&#1080;&#1084;&#1086;&#1077; &#1091;&#1079;&#1083;&#1072;</text><line style="stroke:#000000;stroke-width:1.0;stroke-dasharray:2.0,2.0;" x1="375.5" x2="763.5" y1="413.082" y2="413.082"/><text fill="#000000" font-family="sans-serif" font-size="11" font-weight="bold" lengthAdjust="spacing" textLength="119" x="380.5" y="423.7168">[&#1059;&#1075;&#1083;&#1091;&#1073;&#1083;&#1077;&#1085;&#1080;&#1077; &#1087;&#1086;&#1080;&#1089;&#1082;&#1072;]</text><polygon fill="#181818" points="708.5,444.3477,718.5,448.3477,708.5,452.3477,712.5,448.3477" style="stroke:#181818;stroke-width:1.0;"/><line style="stroke:#181818;stroke-width:1.0;" x1="446.5" x2="714.5" y1="448.3477" y2="448.3477"/><text fill="#000000" font-family="sans-serif" font-size="13" lengthAdjust="spacing" textLength="177" x="453.5" y="443.6055">&#1055;&#1077;&#1088;&#1077;&#1093;&#1086;&#1076; &#1082; &#1076;&#1086;&#1095;&#1077;&#1088;&#1085;&#1080;&#1084; &#1091;&#1079;&#1083;&#1072;&#1084;</text><polygon fill="#181818" points="457.5,473.6582,447.5,477.6582,457.5,481.6582,453.5,477.6582" style="stroke:#181818;stroke-width:1.0;"/><line style="stroke:#181818;stroke-width:1.0;stroke-dasharray:2.0,2.0;" x1="451.5" x2="719.5" y1="477.6582" y2="477.6582"/><text fill="#000000" font-family="sans-serif" font-size="13" lengthAdjust="spacing" textLength="97" x="463.5" y="472.916">&#1044;&#1086;&#1095;&#1077;&#1088;&#1085;&#1080;&#1077; &#1091;&#1079;&#1083;&#1099;</text><polygon fill="#181818" points="267.5,516.9688,257.5,520.9688,267.5,524.9688,263.5,520.9688" style="stroke:#181818;stroke-width:1.0;"/><line style="stroke:#181818;stroke-width:1.0;stroke-dasharray:2.0,2.0;" x1="261.5" x2="440.5" y1="520.9688" y2="520.9688"/><text fill="#000000" font-family="sans-serif" font-size="13" lengthAdjust="spacing" textLength="156" x="273.5" y="516.2266">&#1060;&#1080;&#1085;&#1072;&#1083;&#1100;&#1085;&#1099;&#1081; &#1086;&#1090;&#1074;&#1077;&#1090; + &#1087;&#1091;&#1090;&#1100;</text><polygon fill="#181818" points="66.5,546.2793,56.5,550.2793,66.5,554.2793,62.5,550.2793" style="stroke:#181818;stroke-width:1.0;"/><line style="stroke:#181818;stroke-width:1.0;stroke-dasharray:2.0,2.0;" x1="60.5" x2="250.5" y1="550.2793" y2="550.2793"/><text fill="#000000" font-family="sans-serif" font-size="13" lengthAdjust="spacing" textLength="167" x="72.5" y="545.5371">&#1057;&#1090;&#1088;&#1091;&#1082;&#1090;&#1091;&#1088;&#1080;&#1088;&#1086;&#1074;&#1072;&#1085;&#1085;&#1099;&#1081; &#1086;&#1090;&#1074;&#1077;&#1090;</text><path d="M16,563.2793 L16,618.2793 L759,618.2793 L759,573.2793 L749,563.2793 L16,563.2793 " fill="#FEFFDD" style="stroke:#181818;stroke-width:0.5;"/><path d="M749,563.2793 L749,573.2793 L759,573.2793 L749,563.2793 " fill="#FEFFDD" style="stroke:#181818;stroke-width:0.5;"/><text fill="#000000" font-family="sans-serif" font-size="13" lengthAdjust="spacing" textLength="141" x="302.75" y="580.8477">&#1055;&#1088;&#1086;&#1079;&#1088;&#1072;&#1095;&#1085;&#1099;&#1081; &#1087;&#1088;&#1086;&#1094;&#1077;&#1089;&#1089;:</text><text fill="#000000" font-family="sans-serif" font-size="13" lengthAdjust="spacing" textLength="161" x="302.75" y="596.1582">&#1087;&#1086;&#1083;&#1100;&#1079;&#1086;&#1074;&#1072;&#1090;&#1077;&#1083;&#1100; &#1074;&#1080;&#1076;&#1080;&#1090; &#1087;&#1091;&#1090;&#1100;</text><text fill="#000000" font-family="sans-serif" font-size="13" lengthAdjust="spacing" textLength="113" x="302.75" y="611.4688">&#1087;&#1086;&#1083;&#1091;&#1095;&#1077;&#1085;&#1080;&#1103; &#1086;&#1090;&#1074;&#1077;&#1090;&#1072;</text><!--SRC=[VLJBRjDG4DtVhnXb2zcnwe8lAApu0IUsK90RHudfEgIqMQHIGKA23HG4Uz8sfcwSno_C_IFE6ITE71wHSXtVEtFcp9bpatRIE9A6NklAlz52CvtfIczrwaVuNVXBNVB4Z_obuE363tMgDzWQwLnpqNkyhh79x6d3kQ2T9lqIpxBlwsWD2GRoUX3rNI_efvrsfnTqKscyYEBePJyuQPRG5jLAqdgG_jGPAmbAvQG4o8MVM70xwKVrwEFZPtOInoSk3DAW5GpGv_CeUV9AzBr-jCEmvHpPIFCfwns9VW7isfgyHOFJWmRPNkSqI2DZvx0mayMH-WbIvVv2SsGKM979Dtz5mXa8WxRcEmZZxBWI96m1WggXDPqBiAP-J2IEm4_ykVWpG1RKquKjQUuAV-U-dmWePtxepv6RwHs5EYDnR2_zbNDnalJ0ahgnGJnpEvheW-XwMza9FbjI40_uxqYcR4aU2MHP8Olgppa5R9NCo0326W0Iznb-PJ3I5dWkuJ0JXlPPcj0vs6wsBDkM84v5F-Fy0Gb84_yM0SkT9AHD7xBhaQNiKw_qBA32sEhccfMD5ZIrARG3m72t47Lrlo5qPfBz0i82Rzbs56LA5CDP6C8TIy70HRsOgRg7Va2Gm1bcXYB2kUFwaIvsYR6eIkdY7_m-r1AoQXWbjsxe-DtOhBBvZ_z8oHcl8Hgkl0kZ0xkQvG73MqDn43L4nJcUD5k-CTmKw7-CQ0_ChaytmQ_a5DUFQ8zv6ybPhmtatamwhWngT_2Yl4X7PU3wxtyoOfQQWSnerybUGkK7NCsQ0Q2KaDHl]--></g></svg>