<?xml version="1.0" encoding="us-ascii" standalone="no"?><svg xmlns="http://www.w3.org/2000/svg" xmlns:xlink="http://www.w3.org/1999/xlink" contentStyleType="text/css" height="829px" preserveAspectRatio="none" style="width:758px;height:829px;background:#FFFFFF;" version="1.1" viewBox="0 0 758 829" width="758px" zoomAndPan="magnify"><defs/><g><text fill="#000000" font-family="sans-serif" font-size="14" font-weight="bold" lengthAdjust="spacing" textLength="264" x="245.5" y="33.5352">&#1060;&#1086;&#1088;&#1084;&#1080;&#1088;&#1086;&#1074;&#1072;&#1085;&#1080;&#1077; &#1055;&#1088;&#1086;&#1079;&#1088;&#1072;&#1095;&#1085;&#1086;&#1075;&#1086; &#1054;&#1090;&#1074;&#1077;&#1090;&#1072;</text><ellipse cx="370" cy="57.4883" fill="#222222" rx="10" ry="10" style="stroke:#222222;stroke-width:1.0;"/><rect fill="#F1F1F1" height="34.1328" rx="12.5" ry="12.5" style="stroke:#181818;stroke-width:0.5;" width="219" x="260.5" y="87.4883"/><text fill="#000000" font-family="sans-serif" font-size="12" lengthAdjust="spacing" textLength="199" x="270.5" y="109.0898">&#1055;&#1086;&#1083;&#1100;&#1079;&#1086;&#1074;&#1072;&#1090;&#1077;&#1083;&#1100; &#1086;&#1090;&#1087;&#1088;&#1072;&#1074;&#1083;&#1103;&#1077;&#1090; &#1079;&#1072;&#1087;&#1088;&#1086;&#1089;</text><rect fill="none" height="686.9131" style="stroke:#000000;stroke-width:1.5;" width="736" x="11" y="131.6211"/><path d="M122,131.6211 L122,141.1094 L112,151.1094 L11,151.1094 " fill="none" style="stroke:#000000;stroke-width:1.5;"/><text fill="#000000" font-family="sans-serif" font-size="14" lengthAdjust="spacing" textLength="101" x="14" y="146.1563">&#1071;&#1076;&#1088;&#1086; &#1057;&#1080;&#1089;&#1090;&#1077;&#1084;&#1099;</text><rect fill="#F1F1F1" height="34.1328" rx="12.5" ry="12.5" style="stroke:#181818;stroke-width:0.5;" width="223" x="258.5" y="168.1094"/><text fill="#000000" font-family="sans-serif" font-size="12" lengthAdjust="spacing" textLength="203" x="268.5" y="189.7109">&#1055;&#1077;&#1088;&#1074;&#1080;&#1095;&#1085;&#1099;&#1081; &#1072;&#1085;&#1072;&#1083;&#1080;&#1079; &#1079;&#1072;&#1087;&#1088;&#1086;&#1089;&#1072; (LLM)</text><rect fill="#F1F1F1" height="34.1328" rx="12.5" ry="12.5" style="stroke:#181818;stroke-width:0.5;" width="324" x="208" y="222.2422"/><text fill="#000000" font-family="sans-serif" font-size="12" lengthAdjust="spacing" textLength="304" x="218" y="243.8438">&#1054;&#1087;&#1088;&#1077;&#1076;&#1077;&#1083;&#1077;&#1085;&#1080;&#1077; &#1085;&#1072;&#1095;&#1072;&#1083;&#1100;&#1085;&#1099;&#1093; &#1091;&#1079;&#1083;&#1086;&#1074; &#1074; &#1041;&#1072;&#1079;&#1077; &#1047;&#1085;&#1072;&#1085;&#1080;&#1081; (&#1041;&#1047;)</text><rect fill="#F1F1F1" height="76.5313" rx="12.5" ry="12.5" style="stroke:#181818;stroke-width:0.5;" width="217" x="261.5" y="330.5078"/><text fill="#000000" font-family="sans-serif" font-size="12" lengthAdjust="spacing" textLength="83" x="271.5" y="352.1094">&#1047;&#1072;&#1087;&#1088;&#1086;&#1089; &#1082; LLM:</text><text fill="#000000" font-family="sans-serif" font-size="12" lengthAdjust="spacing" textLength="155" x="279.5" y="366.2422">- &#1058;&#1077;&#1082;&#1091;&#1097;&#1080;&#1081; &#1082;&#1086;&#1085;&#1090;&#1077;&#1082;&#1089;&#1090;/&#1087;&#1091;&#1090;&#1100;</text><text fill="#000000" font-family="sans-serif" font-size="12" lengthAdjust="spacing" textLength="189" x="279.5" y="380.375">- &#1044;&#1086;&#1089;&#1090;&#1091;&#1087;&#1085;&#1099;&#1077; &#1076;&#1086;&#1095;&#1077;&#1088;&#1085;&#1080;&#1077; &#1091;&#1079;&#1083;&#1099; &#1041;&#1047;</text><text fill="#000000" font-family="sans-serif" font-size="12" lengthAdjust="spacing" textLength="119" x="279.5" y="394.5078">- &#1048;&#1089;&#1093;&#1086;&#1076;&#1085;&#1099;&#1081; &#1079;&#1072;&#1087;&#1088;&#1086;&#1089;</text><rect fill="#F1F1F1" height="76.5313" rx="12.5" ry="12.5" style="stroke:#181818;stroke-width:0.5;" width="291" x="224.5" y="427.0391"/><text fill="#000000" font-family="sans-serif" font-size="12" lengthAdjust="spacing" textLength="204" x="234.5" y="448.6406">LLM &#1072;&#1085;&#1072;&#1083;&#1080;&#1079;&#1080;&#1088;&#1091;&#1077;&#1090; &#1080; &#1088;&#1077;&#1082;&#1086;&#1084;&#1077;&#1085;&#1076;&#1091;&#1077;&#1090;:</text><text fill="#000000" font-family="sans-serif" font-size="12" lengthAdjust="spacing" textLength="210" x="242.5" y="462.7734">- &#1057;&#1083;&#1077;&#1076;&#1091;&#1102;&#1097;&#1080;&#1081; &#1091;&#1079;&#1077;&#1083; &#1076;&#1083;&#1103; &#1091;&#1075;&#1083;&#1091;&#1073;&#1083;&#1077;&#1085;&#1080;&#1103;</text><text fill="#000000" font-family="sans-serif" font-size="12" lengthAdjust="spacing" textLength="204" x="242.5" y="476.9063">- &#1048;&#1051;&#1048; &#1091;&#1079;&#1077;&#1083; &#1089; &#1092;&#1080;&#1085;&#1072;&#1083;&#1100;&#1085;&#1099;&#1084; &#1086;&#1090;&#1074;&#1077;&#1090;&#1086;&#1084;</text><text fill="#000000" font-family="sans-serif" font-size="12" lengthAdjust="spacing" textLength="263" x="242.5" y="491.0391">- &#1048;&#1051;&#1048; &#1091;&#1082;&#1072;&#1079;&#1099;&#1074;&#1072;&#1077;&#1090; &#1085;&#1072; &#1085;&#1077;&#1093;&#1074;&#1072;&#1090;&#1082;&#1091; &#1080;&#1085;&#1092;&#1086;&#1088;&#1084;&#1072;&#1094;&#1080;&#1080;</text><polygon fill="#F1F1F1" points="33,523.5703,231,523.5703,243,535.5703,231,547.5703,33,547.5703,21,535.5703,33,523.5703" style="stroke:#181818;stroke-width:0.5;"/><text fill="#000000" font-family="sans-serif" font-size="11" lengthAdjust="spacing" textLength="13" x="136" y="558.2051">&#1076;&#1072;</text><text fill="#000000" font-family="sans-serif" font-size="11" lengthAdjust="spacing" textLength="198" x="33" y="539.7275">LLM &#1088;&#1077;&#1082;&#1086;&#1084;&#1077;&#1085;&#1076;&#1091;&#1077;&#1090; &#1092;&#1080;&#1085;&#1072;&#1083;&#1100;&#1085;&#1099;&#1081; &#1086;&#1090;&#1074;&#1077;&#1090;?</text><rect fill="#F1F1F1" height="48.2656" rx="12.5" ry="12.5" style="stroke:#181818;stroke-width:0.5;" width="188" x="38" y="580.5254"/><text fill="#000000" font-family="sans-serif" font-size="12" lengthAdjust="spacing" textLength="168" x="48" y="602.127">&#1048;&#1079;&#1074;&#1083;&#1077;&#1095;&#1077;&#1085;&#1080;&#1077; &#1087;&#1086;&#1083;&#1085;&#1086;&#1075;&#1086; &#1086;&#1090;&#1074;&#1077;&#1090;&#1072;</text><text fill="#000000" font-family="sans-serif" font-size="12" lengthAdjust="spacing" textLength="120" x="48" y="616.2598">&#1080;&#1079; &#1094;&#1077;&#1083;&#1077;&#1074;&#1086;&#1075;&#1086; &#1091;&#1079;&#1083;&#1072; &#1041;&#1047;</text><rect fill="#F1F1F1" height="34.1328" rx="12.5" ry="12.5" style="stroke:#181818;stroke-width:0.5;" width="168" x="48" y="662.9238"/><text fill="#000000" font-family="sans-serif" font-size="12" lengthAdjust="spacing" textLength="148" x="58" y="684.5254">&#1060;&#1080;&#1082;&#1089;&#1072;&#1094;&#1080;&#1103; &#1087;&#1091;&#1090;&#1080; &#1088;&#1077;&#1096;&#1077;&#1085;&#1080;&#1103;</text><ellipse cx="132" cy="731.5342" fill="none" rx="11" ry="11" style="stroke:#222222;stroke-width:1.0;"/><ellipse cx="132" cy="731.5342" fill="#222222" rx="6" ry="6" style="stroke:#222222;stroke-width:1.0;"/><polygon fill="#F1F1F1" points="283,523.5703,496,523.5703,508,535.5703,496,547.5703,283,547.5703,271,535.5703,283,523.5703" style="stroke:#181818;stroke-width:0.5;"/><text fill="#000000" font-family="sans-serif" font-size="11" lengthAdjust="spacing" textLength="13" x="393.5" y="558.2051">&#1076;&#1072;</text><text fill="#000000" font-family="sans-serif" font-size="11" lengthAdjust="spacing" textLength="213" x="283" y="539.7275">LLM &#1088;&#1077;&#1082;&#1086;&#1084;&#1077;&#1085;&#1076;&#1091;&#1077;&#1090; &#1091;&#1079;&#1077;&#1083; &#1076;&#1083;&#1103; &#1091;&#1075;&#1083;&#1091;&#1073;&#1083;&#1077;&#1085;&#1080;&#1103;?</text><text fill="#000000" font-family="sans-serif" font-size="11" lengthAdjust="spacing" textLength="226" x="508" y="533.25">&#1085;&#1077;&#1090; &#1087;&#1086;&#1076;&#1093;&#1086;&#1076;&#1103;&#1097;&#1080;&#1093; &#1091;&#1079;&#1083;&#1086;&#1074; / &#1083;&#1080;&#1084;&#1080;&#1090; &#1080;&#1090;&#1077;&#1088;&#1072;&#1094;&#1080;&#1081;</text><rect fill="#F1F1F1" height="34.1328" rx="12.5" ry="12.5" style="stroke:#181818;stroke-width:0.5;" width="253" x="263" y="580.5254"/><text fill="#000000" font-family="sans-serif" font-size="12" lengthAdjust="spacing" textLength="233" x="273" y="602.127">&#1055;&#1077;&#1088;&#1077;&#1093;&#1086;&#1076; &#1082; &#1088;&#1077;&#1082;&#1086;&#1084;&#1077;&#1085;&#1076;&#1086;&#1074;&#1072;&#1085;&#1085;&#1086;&#1084;&#1091; &#1091;&#1079;&#1083;&#1091; &#1041;&#1047;</text><rect fill="#F1F1F1" height="34.1328" rx="12.5" ry="12.5" style="stroke:#181818;stroke-width:0.5;" width="186" x="296.5" y="648.791"/><text fill="#000000" font-family="sans-serif" font-size="12" lengthAdjust="spacing" textLength="166" x="306.5" y="670.3926">&#1054;&#1073;&#1085;&#1086;&#1074;&#1083;&#1077;&#1085;&#1080;&#1077; &#1090;&#1077;&#1082;&#1091;&#1097;&#1077;&#1075;&#1086; &#1087;&#1091;&#1090;&#1080;</text><rect fill="#F1F1F1" height="48.2656" rx="12.5" ry="12.5" style="stroke:#181818;stroke-width:0.5;" width="183" x="536" y="577.0479"/><text fill="#000000" font-family="sans-serif" font-size="12" lengthAdjust="spacing" textLength="138" x="546" y="598.6494">&#1060;&#1086;&#1088;&#1084;&#1080;&#1088;&#1086;&#1074;&#1072;&#1085;&#1080;&#1077; &#1086;&#1090;&#1074;&#1077;&#1090;&#1072;:</text><text fill="#000000" font-family="sans-serif" font-size="12" lengthAdjust="spacing" textLength="163" x="546" y="612.7822">"&#1048;&#1085;&#1092;&#1086;&#1088;&#1084;&#1072;&#1094;&#1080;&#1103; &#1085;&#1077; &#1085;&#1072;&#1081;&#1076;&#1077;&#1085;&#1072;"</text><rect fill="#F1F1F1" height="34.1328" rx="12.5" ry="12.5" style="stroke:#181818;stroke-width:0.5;" width="181" x="537" y="659.4463"/><text fill="#000000" font-family="sans-serif" font-size="12" lengthAdjust="spacing" textLength="161" x="547" y="681.0479">&#1060;&#1080;&#1082;&#1089;&#1072;&#1094;&#1080;&#1103; &#1087;&#1086;&#1087;&#1099;&#1090;&#1086;&#1082; &#1087;&#1086;&#1080;&#1089;&#1082;&#1072;</text><ellipse cx="627.5" cy="728.0566" fill="none" rx="11" ry="11" style="stroke:#222222;stroke-width:1.0;"/><ellipse cx="627.5" cy="728.0566" fill="#222222" rx="6" ry="6" style="stroke:#222222;stroke-width:1.0;"/><rect fill="#F1F1F1" height="34.1328" rx="12.5" ry="12.5" style="stroke:#181818;stroke-width:0.5;" width="185" x="277.5" y="276.375"/><text fill="#000000" font-family="sans-serif" font-size="12" lengthAdjust="spacing" textLength="165" x="287.5" y="297.9766">&#1048;&#1090;&#1077;&#1088;&#1072;&#1094;&#1080;&#1103; &#1085;&#1072;&#1074;&#1080;&#1075;&#1072;&#1094;&#1080;&#1080; &#1087;&#1086; &#1041;&#1047;</text><polygon fill="#F1F1F1" points="237,782.5342,503,782.5342,515,794.5342,503,806.5342,237,806.5342,225,794.5342,237,782.5342" style="stroke:#181818;stroke-width:0.5;"/><text fill="#000000" font-family="sans-serif" font-size="11" lengthAdjust="spacing" textLength="266" x="237" y="798.6914">&#1054;&#1090;&#1074;&#1077;&#1090; &#1085;&#1077; &#1085;&#1072;&#1081;&#1076;&#1077;&#1085; &#1048; &#1083;&#1080;&#1084;&#1080;&#1090; &#1080;&#1090;&#1077;&#1088;&#1072;&#1094;&#1080;&#1081; &#1085;&#1077; &#1076;&#1086;&#1089;&#1090;&#1080;&#1075;&#1085;&#1091;&#1090;</text><text fill="#000000" font-family="sans-serif" font-size="11" lengthAdjust="spacing" textLength="66" x="515" y="792.2139">&#1087;&#1088;&#1086;&#1076;&#1086;&#1083;&#1078;&#1072;&#1090;&#1100;</text><line style="stroke:#181818;stroke-width:1.0;" x1="370" x2="370" y1="67.4883" y2="87.4883"/><polygon fill="#181818" points="366,77.4883,370,87.4883,374,77.4883,370,81.4883" style="stroke:#181818;stroke-width:1.0;"/><line style="stroke:#181818;stroke-width:1.0;" x1="370" x2="370" y1="202.2422" y2="222.2422"/><polygon fill="#181818" points="366,212.2422,370,222.2422,374,212.2422,370,216.2422" style="stroke:#181818;stroke-width:1.0;"/><line style="stroke:#181818;stroke-width:1.0;" x1="370" x2="370" y1="407.0391" y2="427.0391"/><polygon fill="#181818" points="366,417.0391,370,427.0391,374,417.0391,370,421.0391" style="stroke:#181818;stroke-width:1.0;"/><line style="stroke:#181818;stroke-width:1.0;" x1="132" x2="132" y1="628.791" y2="662.9238"/><polygon fill="#181818" points="128,652.9238,132,662.9238,136,652.9238,132,656.9238" style="stroke:#181818;stroke-width:1.0;"/><line style="stroke:#181818;stroke-width:1.0;" x1="132" x2="132" y1="697.0566" y2="720.5342"/><polygon fill="#181818" points="128,710.5342,132,720.5342,136,710.5342,132,714.5342" style="stroke:#181818;stroke-width:1.0;"/><line style="stroke:#181818;stroke-width:1.0;" x1="389.5" x2="389.5" y1="614.6582" y2="648.791"/><polygon fill="#181818" points="385.5,638.791,389.5,648.791,393.5,638.791,389.5,642.791" style="stroke:#181818;stroke-width:1.0;"/><line style="stroke:#181818;stroke-width:1.0;" x1="627.5" x2="627.5" y1="625.3135" y2="659.4463"/><polygon fill="#181818" points="623.5,649.4463,627.5,659.4463,631.5,649.4463,627.5,653.4463" style="stroke:#181818;stroke-width:1.0;"/><line style="stroke:#181818;stroke-width:1.0;" x1="627.5" x2="627.5" y1="693.5791" y2="717.0566"/><polygon fill="#181818" points="623.5,707.0566,627.5,717.0566,631.5,707.0566,627.5,711.0566" style="stroke:#181818;stroke-width:1.0;"/><line style="stroke:#181818;stroke-width:1.0;" x1="132" x2="132" y1="547.5703" y2="580.5254"/><polygon fill="#181818" points="128,570.5254,132,580.5254,136,570.5254,132,574.5254" style="stroke:#181818;stroke-width:1.0;"/><line style="stroke:#181818;stroke-width:1.0;" x1="389.5" x2="389.5" y1="547.5703" y2="580.5254"/><polygon fill="#181818" points="385.5,570.5254,389.5,580.5254,393.5,570.5254,389.5,574.5254" style="stroke:#181818;stroke-width:1.0;"/><line style="stroke:#181818;stroke-width:1.0;" x1="389.5" x2="389.5" y1="682.9238" y2="762.5342"/><polygon fill="#181818" points="385.5,752.5342,389.5,762.5342,393.5,752.5342,389.5,756.5342" style="stroke:#181818;stroke-width:1.0;"/><line style="stroke:#181818;stroke-width:1.0;" x1="243" x2="271" y1="535.5703" y2="535.5703"/><polygon fill="#181818" points="261,531.5703,271,535.5703,261,539.5703,265,535.5703" style="stroke:#181818;stroke-width:1.0;"/><line style="stroke:#181818;stroke-width:1.0;" x1="370" x2="370" y1="503.5703" y2="508.5703"/><line style="stroke:#181818;stroke-width:1.0;" x1="370" x2="132" y1="508.5703" y2="508.5703"/><line style="stroke:#181818;stroke-width:1.0;" x1="132" x2="132" y1="508.5703" y2="523.5703"/><polygon fill="#181818" points="128,513.5703,132,523.5703,136,513.5703,132,517.5703" style="stroke:#181818;stroke-width:1.0;"/><line style="stroke:#181818;stroke-width:1.0;" x1="508" x2="627.5" y1="535.5703" y2="535.5703"/><line style="stroke:#181818;stroke-width:1.0;" x1="627.5" x2="627.5" y1="535.5703" y2="577.0479"/><polygon fill="#181818" points="623.5,567.0479,627.5,577.0479,631.5,567.0479,627.5,571.0479" style="stroke:#181818;stroke-width:1.0;"/><line style="stroke:#181818;stroke-width:1.0;" x1="370" x2="389.5" y1="762.5342" y2="762.5342"/><line style="stroke:#181818;stroke-width:1.0;" x1="370" x2="370" y1="310.5078" y2="330.5078"/><polygon fill="#181818" points="366,320.5078,370,330.5078,374,320.5078,370,324.5078" style="stroke:#181818;stroke-width:1.0;"/><line style="stroke:#181818;stroke-width:1.0;" x1="515" x2="731" y1="794.5342" y2="794.5342"/><polygon fill="#181818" points="727,560.1826,731,550.1826,735,560.1826,731,556.1826" style="stroke:#181818;stroke-width:1.0;"/><line style="stroke:#181818;stroke-width:1.0;" x1="731" x2="731" y1="293.4414" y2="794.5342"/><line style="stroke:#181818;stroke-width:1.0;" x1="731" x2="462.5" y1="293.4414" y2="293.4414"/><polygon fill="#181818" points="472.5,289.4414,462.5,293.4414,472.5,297.4414,468.5,293.4414" style="stroke:#181818;stroke-width:1.0;"/><line style="stroke:#181818;stroke-width:1.0;" x1="370" x2="370" y1="762.5342" y2="782.5342"/><polygon fill="#181818" points="366,772.5342,370,782.5342,374,772.5342,370,776.5342" style="stroke:#181818;stroke-width:1.0;"/><line style="stroke:#181818;stroke-width:1.0;" x1="370" x2="370" y1="256.375" y2="276.375"/><polygon fill="#181818" points="366,266.375,370,276.375,374,266.375,370,270.375" style="stroke:#181818;stroke-width:1.0;"/><line style="stroke:#181818;stroke-width:1.0;" x1="370" x2="370" y1="121.6211" y2="168.1094"/><polygon fill="#181818" points="366,158.1094,370,168.1094,374,158.1094,370,162.1094" style="stroke:#181818;stroke-width:1.0;"/><!--SRC=[ZLJBQjjG4DthAmQleaN9Fbxq1z8_o2PGXGYCOs915wNGM4dJObDJADXGS4Z9lgeZrRPisRymzuzwPkwLvGTE2xQGvjwPEMVcp4HXr0Yena-yD1zvmLCybppcX0kUSaRye8O9decvXt79pxma7faERcLu9ZNFQqVdrv5tmWyudfiUJsmCd6RoJGZUuPN4W7bk-k98k9MeSMbkwfxNGeWm2g-QGFEBKx4JFmBGZOPPc6wDtdj4aYN3wHX706IwF2E5c_0Sa2TRSJcXezFJDtvT7KTgpZWLMFWxYeLIInGvufaxCZ62p8K4oUyR3YToSw1fn6r6Hp0F41YHhuDMS1uXmL2WQga-0LrVGmjGr4nDF2LU2I-umaym3Igmn3a1xCbPa-WLyKyWp4rilcWwpW6dq5BaKf9ZUCMcOthkzdU9WEyO2QGeG9l2TAzuB57BodGrlNCRmkaEaTEoabjDKOY0j5LWqGX2QGkdf0KLR0ijQ6fFIWwFMcSOpLV7Gq6W_08FIf3lPxp4_BjiYUcNsFW73oi75CZS8aPHjOeNLbfMYS2mwvbBvt1F1As0uIoF3AIjG55Xag08RIV0DSgI3ozKFmTOxkEPRU1vxLDq6JGXb9GJNyD9muUWCnQkqfjIWYiPd6gwAax9MLD53L1MisDtnqaqqMRMrz6VS3iNtPSAL9MuFfdFPOLBXtPqrTBNeD4E_aNsFpftWBETsCmgJMI-csAzSwG42xJ4QJNUeJT2ia8lL_FhPa869RFbSvphQsR0KzZ-Iw5JYyFqHPBRqtvCgd7PWwBkpN7ccRzHvGFRSgDn684QchqZBBiKxDBXcMuYlDLUQY0ohB2LHD-v_SHE56NlDx7vDhoezj6xox0XrDUxUZyrHkKbniuXjRj5zrWXjVKfR2EmxWbjtfp_o3IPdkzzyFu2]--></g></svg>