<?xml version="1.0" encoding="us-ascii" standalone="no"?><svg xmlns="http://www.w3.org/2000/svg" xmlns:xlink="http://www.w3.org/1999/xlink" contentStyleType="text/css" height="492px" preserveAspectRatio="none" style="width:866px;height:492px;background:#FFFFFF;" version="1.1" viewBox="0 0 866 492" width="866px" zoomAndPan="magnify"><defs/><g><rect fill="none" height="149.5078" style="stroke:#000000;stroke-width:1.5;" width="849.5" x="10" y="245.041"/><line style="stroke:#181818;stroke-width:0.5;stroke-dasharray:5.0,5.0;" x1="70" x2="70" y1="81.4883" y2="411.5488"/><line style="stroke:#181818;stroke-width:0.5;stroke-dasharray:5.0,5.0;" x1="222" x2="222" y1="81.4883" y2="411.5488"/><line style="stroke:#181818;stroke-width:0.5;stroke-dasharray:5.0,5.0;" x1="441.5" x2="441.5" y1="81.4883" y2="411.5488"/><line style="stroke:#181818;stroke-width:0.5;stroke-dasharray:5.0,5.0;" x1="711.5" x2="711.5" y1="81.4883" y2="411.5488"/><line style="stroke:#181818;stroke-width:0.5;stroke-dasharray:5.0,5.0;" x1="807.5" x2="807.5" y1="81.4883" y2="411.5488"/><text fill="#000000" font-family="sans-serif" font-size="14" lengthAdjust="spacing" textLength="95" x="20" y="78.5352">&#1055;&#1086;&#1083;&#1100;&#1079;&#1086;&#1074;&#1072;&#1090;&#1077;&#1083;&#1100;</text><ellipse cx="70.5" cy="13.5" fill="#E2E2F0" rx="8" ry="8" style="stroke:#181818;stroke-width:0.5;"/><path d="M70.5,21.5 L70.5,48.5 M57.5,29.5 L83.5,29.5 M70.5,48.5 L57.5,63.5 M70.5,48.5 L83.5,63.5 " fill="none" style="stroke:#181818;stroke-width:0.5;"/><text fill="#000000" font-family="sans-serif" font-size="14" lengthAdjust="spacing" textLength="95" x="20" y="424.084">&#1055;&#1086;&#1083;&#1100;&#1079;&#1086;&#1074;&#1072;&#1090;&#1077;&#1083;&#1100;</text><ellipse cx="70.5" cy="435.5371" fill="#E2E2F0" rx="8" ry="8" style="stroke:#181818;stroke-width:0.5;"/><path d="M70.5,443.5371 L70.5,470.5371 M57.5,451.5371 L83.5,451.5371 M70.5,470.5371 L57.5,485.5371 M70.5,470.5371 L83.5,485.5371 " fill="none" style="stroke:#181818;stroke-width:0.5;"/><rect fill="#E2E2F0" height="30.4883" rx="2.5" ry="2.5" style="stroke:#181818;stroke-width:0.5;" width="151" x="147" y="50"/><text fill="#000000" font-family="sans-serif" font-size="14" lengthAdjust="spacing" textLength="137" x="154" y="70.5352">&#1050;&#1083;&#1080;&#1077;&#1085;&#1090;&#1089;&#1082;&#1080;&#1081; &#1087;&#1086;&#1088;&#1090;&#1072;&#1083;</text><rect fill="#E2E2F0" height="30.4883" rx="2.5" ry="2.5" style="stroke:#181818;stroke-width:0.5;" width="151" x="147" y="410.5488"/><text fill="#000000" font-family="sans-serif" font-size="14" lengthAdjust="spacing" textLength="137" x="154" y="431.084">&#1050;&#1083;&#1080;&#1077;&#1085;&#1090;&#1089;&#1082;&#1080;&#1081; &#1087;&#1086;&#1088;&#1090;&#1072;&#1083;</text><rect fill="#E2E2F0" height="30.4883" rx="2.5" ry="2.5" style="stroke:#181818;stroke-width:0.5;" width="158" x="362.5" y="50"/><text fill="#000000" font-family="sans-serif" font-size="14" lengthAdjust="spacing" textLength="144" x="369.5" y="70.5352">&#1057;&#1080;&#1089;&#1090;&#1077;&#1084;&#1072; &#1091;&#1087;&#1088;&#1072;&#1074;&#1083;&#1077;&#1085;&#1080;&#1103;</text><rect fill="#E2E2F0" height="30.4883" rx="2.5" ry="2.5" style="stroke:#181818;stroke-width:0.5;" width="158" x="362.5" y="410.5488"/><text fill="#000000" font-family="sans-serif" font-size="14" lengthAdjust="spacing" textLength="144" x="369.5" y="431.084">&#1057;&#1080;&#1089;&#1090;&#1077;&#1084;&#1072; &#1091;&#1087;&#1088;&#1072;&#1074;&#1083;&#1077;&#1085;&#1080;&#1103;</text><rect fill="#E2E2F0" height="30.4883" rx="2.5" ry="2.5" style="stroke:#181818;stroke-width:0.5;" width="88" x="667.5" y="50"/><text fill="#000000" font-family="sans-serif" font-size="14" lengthAdjust="spacing" textLength="74" x="674.5" y="70.5352">&#1048;&#1048; &#1084;&#1086;&#1076;&#1091;&#1083;&#1100;</text><rect fill="#E2E2F0" height="30.4883" rx="2.5" ry="2.5" style="stroke:#181818;stroke-width:0.5;" width="88" x="667.5" y="410.5488"/><text fill="#000000" font-family="sans-serif" font-size="14" lengthAdjust="spacing" textLength="74" x="674.5" y="431.084">&#1048;&#1048; &#1084;&#1086;&#1076;&#1091;&#1083;&#1100;</text><rect fill="#E2E2F0" height="30.4883" rx="2.5" ry="2.5" style="stroke:#181818;stroke-width:0.5;" width="84" x="765.5" y="50"/><text fill="#000000" font-family="sans-serif" font-size="14" lengthAdjust="spacing" textLength="70" x="772.5" y="70.5352">&#1054;&#1087;&#1077;&#1088;&#1072;&#1090;&#1086;&#1088;</text><rect fill="#E2E2F0" height="30.4883" rx="2.5" ry="2.5" style="stroke:#181818;stroke-width:0.5;" width="84" x="765.5" y="410.5488"/><text fill="#000000" font-family="sans-serif" font-size="14" lengthAdjust="spacing" textLength="70" x="772.5" y="431.084">&#1054;&#1087;&#1077;&#1088;&#1072;&#1090;&#1086;&#1088;</text><polygon fill="#181818" points="210.5,108.7988,220.5,112.7988,210.5,116.7988,214.5,112.7988" style="stroke:#181818;stroke-width:1.0;"/><line style="stroke:#181818;stroke-width:1.0;" x1="70.5" x2="216.5" y1="112.7988" y2="112.7988"/><text fill="#000000" font-family="sans-serif" font-size="13" lengthAdjust="spacing" textLength="128" x="77.5" y="108.0566">&#1057;&#1086;&#1079;&#1076;&#1072;&#1090;&#1100; &#1086;&#1073;&#1088;&#1072;&#1097;&#1077;&#1085;&#1080;&#1077;</text><polygon fill="#181818" points="429.5,138.1094,439.5,142.1094,429.5,146.1094,433.5,142.1094" style="stroke:#181818;stroke-width:1.0;"/><line style="stroke:#181818;stroke-width:1.0;" x1="222.5" x2="435.5" y1="142.1094" y2="142.1094"/><text fill="#000000" font-family="sans-serif" font-size="13" lengthAdjust="spacing" textLength="195" x="229.5" y="137.3672">&#1054;&#1090;&#1087;&#1088;&#1072;&#1074;&#1080;&#1090;&#1100; &#1076;&#1072;&#1085;&#1085;&#1099;&#1077; &#1086;&#1073;&#1088;&#1072;&#1097;&#1077;&#1085;&#1080;&#1103;</text><polygon fill="#181818" points="699.5,167.4199,709.5,171.4199,699.5,175.4199,703.5,171.4199" style="stroke:#181818;stroke-width:1.0;"/><line style="stroke:#181818;stroke-width:1.0;" x1="441.5" x2="705.5" y1="171.4199" y2="171.4199"/><text fill="#000000" font-family="sans-serif" font-size="13" lengthAdjust="spacing" textLength="246" x="448.5" y="166.6777">&#1040;&#1085;&#1072;&#1083;&#1080;&#1079;&#1080;&#1088;&#1086;&#1074;&#1072;&#1090;&#1100; &#1090;&#1077;&#1082;&#1089;&#1090; &#1080; &#1080;&#1089;&#1082;&#1072;&#1090;&#1100; &#1096;&#1072;&#1073;&#1083;&#1086;&#1085;</text><polygon fill="#181818" points="452.5,196.7305,442.5,200.7305,452.5,204.7305,448.5,200.7305" style="stroke:#181818;stroke-width:1.0;"/><line style="stroke:#181818;stroke-width:1.0;" x1="446.5" x2="710.5" y1="200.7305" y2="200.7305"/><text fill="#000000" font-family="sans-serif" font-size="13" lengthAdjust="spacing" textLength="188" x="458.5" y="195.9883">&#1042;&#1086;&#1079;&#1074;&#1088;&#1072;&#1097;&#1072;&#1077;&#1090; &#1085;&#1072;&#1081;&#1076;&#1077;&#1085;&#1085;&#1099;&#1081; &#1086;&#1090;&#1074;&#1077;&#1090;</text><polygon fill="#181818" points="81.5,226.041,71.5,230.041,81.5,234.041,77.5,230.041" style="stroke:#181818;stroke-width:1.0;"/><line style="stroke:#181818;stroke-width:1.0;" x1="75.5" x2="440.5" y1="230.041" y2="230.041"/><text fill="#000000" font-family="sans-serif" font-size="13" lengthAdjust="spacing" textLength="224" x="87.5" y="225.2988">&#1055;&#1088;&#1077;&#1076;&#1083;&#1086;&#1078;&#1080;&#1090;&#1100; &#1072;&#1074;&#1090;&#1086;&#1084;&#1072;&#1090;&#1080;&#1095;&#1077;&#1089;&#1082;&#1080;&#1081; &#1086;&#1090;&#1074;&#1077;&#1090;</text><path d="M10,245.041 L72,245.041 L72,252.3516 L62,262.3516 L10,262.3516 L10,245.041 " fill="#EEEEEE" style="stroke:#000000;stroke-width:1.5;"/><rect fill="none" height="149.5078" style="stroke:#000000;stroke-width:1.5;" width="849.5" x="10" y="245.041"/><text fill="#000000" font-family="sans-serif" font-size="13" font-weight="bold" lengthAdjust="spacing" textLength="17" x="25" y="258.6094">alt</text><text fill="#000000" font-family="sans-serif" font-size="11" font-weight="bold" lengthAdjust="spacing" textLength="189" x="87" y="257.6758">[&#1055;&#1086;&#1083;&#1100;&#1079;&#1086;&#1074;&#1072;&#1090;&#1077;&#1083;&#1100; &#1087;&#1088;&#1080;&#1085;&#1080;&#1084;&#1072;&#1077;&#1090; &#1086;&#1090;&#1074;&#1077;&#1090;]</text><polygon fill="#181818" points="429.5,279.6621,439.5,283.6621,429.5,287.6621,433.5,283.6621" style="stroke:#181818;stroke-width:1.0;"/><line style="stroke:#181818;stroke-width:1.0;" x1="70.5" x2="435.5" y1="283.6621" y2="283.6621"/><text fill="#000000" font-family="sans-serif" font-size="13" lengthAdjust="spacing" textLength="92" x="77.5" y="278.9199">&#1055;&#1088;&#1080;&#1085;&#1103;&#1090;&#1100; &#1086;&#1090;&#1074;&#1077;&#1090;</text><polygon fill="#181818" points="233.5,308.9727,223.5,312.9727,233.5,316.9727,229.5,312.9727" style="stroke:#181818;stroke-width:1.0;"/><line style="stroke:#181818;stroke-width:1.0;" x1="227.5" x2="440.5" y1="312.9727" y2="312.9727"/><text fill="#000000" font-family="sans-serif" font-size="13" lengthAdjust="spacing" textLength="89" x="239.5" y="308.2305">&#1047;&#1072;&#1082;&#1088;&#1099;&#1090;&#1100; &#1090;&#1080;&#1082;&#1077;&#1090;</text><line style="stroke:#000000;stroke-width:1.0;stroke-dasharray:2.0,2.0;" x1="10" x2="859.5" y1="321.9727" y2="321.9727"/><text fill="#000000" font-family="sans-serif" font-size="11" font-weight="bold" lengthAdjust="spacing" textLength="151" x="15" y="332.6074">[&#1055;&#1086;&#1083;&#1100;&#1079;&#1086;&#1074;&#1072;&#1090;&#1077;&#1083;&#1100; &#1086;&#1090;&#1082;&#1083;&#1086;&#1085;&#1103;&#1077;&#1090;]</text><polygon fill="#181818" points="429.5,353.2383,439.5,357.2383,429.5,361.2383,433.5,357.2383" style="stroke:#181818;stroke-width:1.0;"/><line style="stroke:#181818;stroke-width:1.0;" x1="70.5" x2="435.5" y1="357.2383" y2="357.2383"/><text fill="#000000" font-family="sans-serif" font-size="13" lengthAdjust="spacing" textLength="106" x="77.5" y="352.4961">&#1054;&#1090;&#1082;&#1083;&#1086;&#1085;&#1080;&#1090;&#1100; &#1086;&#1090;&#1074;&#1077;&#1090;</text><polygon fill="#181818" points="795.5,382.5488,805.5,386.5488,795.5,390.5488,799.5,386.5488" style="stroke:#181818;stroke-width:1.0;"/><line style="stroke:#181818;stroke-width:1.0;" x1="441.5" x2="801.5" y1="386.5488" y2="386.5488"/><text fill="#000000" font-family="sans-serif" font-size="13" lengthAdjust="spacing" textLength="208" x="448.5" y="381.8066">&#1055;&#1077;&#1088;&#1077;&#1076;&#1072;&#1090;&#1100; &#1086;&#1073;&#1088;&#1072;&#1097;&#1077;&#1085;&#1080;&#1077; &#1086;&#1087;&#1077;&#1088;&#1072;&#1090;&#1086;&#1088;&#1091;</text><!--SRC=[bL8xRi9G4EpVAPxeSu4KaIYf4Yadi8WB90B8k4d7fqWGaHob2Ke1oWsCXOCnOAwmUwFCFllXG6Iaq1XxTsPdPjTf-brFqu8osl8hhV6CAEGHnVAkUexdjvgjdjFnTOq-QKi9AdiUyP1I_DzeEb360m12sjQqqzTtNSztscV8BqfuQ5Xt56eUqu47G4GW11sAWS7UF_Lzz_4CEwEP1YoZ5N0GPJhhZREkEOJ4Geef46IQRdkkvy2VKbK6zTLD8VXQGsI6-agggE1bQVWckKIALTufc5meC7CmMIz9ZWC1-lSyfVWF2GSgXmf9lG62DtmEJQvhb0TM7eYCnbHYqvHe2H2H5wKNO9P0PRHNzSQ9edVZ8YgcXWW5U9cnWRAuK8QzPU2FfFfBKLLCe5s0C0Q3pFosLk5QufQbufdmC_YEXr4ESDf-9RKsyIKcuPsLMq8rVfUMTxIzo5auA9Ptmb0wF2xx0xDI7ExKPfr0j_IxxRvxGQqGftdo7FnFuho4sW2hPDhB5MFchECBTocVJewVnyhjFFm0]--></g></svg>